# xmcd CD database file
#
# Track frame offsets:
#	150
#	18211
#	39785
#	56229
#	82948
#	103920
#	118832
#	133402
#	155839
#	170092
#	186316
#
# Disc length: 2722 seconds
#
# Revision: 0
# Processed by: cddbd v1.5.2PL0 Copyright (c) Steve Scherf et al.
# Submitted via: CDex 1.51
#
DISCID=9a0aa00b
DTITLE=Caleido - Caleido
DYEAR=2006
DGENRE=New Age
TTITLE0=Sommarfri Vals
TTITLE1=Vadå, Vadå?
TTITLE2=Ochun
TTITLE3=Tassivass
TTITLE4=Gungadin
TTITLE5=Retstickan
TTITLE6=Gungalätt
TTITLE7=Guggeligugg
TTITLE8=Sol i Säfsen
TTITLE9=En pigg Spigg
TTITLE10=Dunkel Styrka
EXTD=YEAR: 2006
EXTT0=
EXTT1=
EXTT2=
EXTT3=
EXTT4=
EXTT5=
EXTT6=
EXTT7=
EXTT8=
EXTT9=
EXTT10=
PLAYORDER=
